0
SECTION
2
HEADER
9
$INSUNITS
70
1
9
$ACADVER
1
AC1014
9
$HANDSEED
5
FFFF
0
ENDSEC
0
SECTION
2
TABLES
0
TABLE
2
VPORT
5
8
100
AcDbSymbolTable
0
ENDTAB
0
TABLE
2
LTYPE
5
5
100
AcDbSymbolTable
0
LTYPE
5
14
100
AcDbSymbolTableRecord
100
AcDbLinetypeTableRecord
2
BYBLOCK
70
0
0
LTYPE
5
15
100
AcDbSymbolTableRecord
100
AcDbLinetypeTableRecord
2
BYLAYER
70
0
0
LTYPE
5
16
100
AcDbSymbolTableRecord
100
AcDbLinetypeTableRecord
2
DASHED
70
0
3
Dashed __ __ __ __ __ __ __ __ __ __ __ __ __ _
72
65
73
2
40
0.75
49
0.5
74
0
49
-0.25
74
0
0
ENDTAB
0
TABLE
2
LAYER
5
2
100
AcDbSymbolTable
70
2
0
LAYER
5
50
100
AcDbSymbolTableRecord
100
AcDbLayerTableRecord
2
0
70
0
62
7
6
CONTINUOUS
0
ENDTAB
0
TABLE
2
STYLE
5
3
100
AcDbSymbolTable
70
1
0
STYLE
5
11
100
AcDbSymbolTableRecord
100
AcDbTextStyleTableRecord
2
STANDARD
70
0
0
ENDTAB
0
TABLE
2
VIEW
5
6
100
AcDbSymbolTable
70
0
0
ENDTAB
0
TABLE
2
UCS
5
7
100
AcDbSymbolTable
70
0
0
ENDTAB
0
TABLE
2
APPID
5
9
100
AcDbSymbolTable
70
2
0
APPID
5
12
100
AcDbSymbolTableRecord
100
AcDbRegAppTableRecord
2
ACAD
70
0
0
ENDTAB
0
TABLE
2
DIMSTYLE
5
A
100
AcDbSymbolTable
70
1
0
ENDTAB
0
TABLE
2
BLOCK_RECORD
5
1
100
AcDbSymbolTable
70
1
0
BLOCK_RECORD
5
1F
100
AcDbSymbolTableRecord
100
AcDbBlockTableRecord
2
*MODEL_SPACE
0
BLOCK_RECORD
5
1B
100
AcDbSymbolTableRecord
100
AcDbBlockTableRecord
2
*PAPER_SPACE
0
ENDTAB
0
ENDSEC
0
SECTION
2
BLOCKS
0
BLOCK
5
20
100
AcDbEntity
100
AcDbBlockBegin
2
*MODEL_SPACE
0
ENDBLK
5
21
100
AcDbEntity
100
AcDbBlockEnd
0
BLOCK
5
1C
100
AcDbEntity
100
AcDbBlockBegin
2
*PAPER_SPACE
0
ENDBLK
5
1D
100
AcDbEntity
100
AcDbBlockEnd
0
ENDSEC
0
SECTION
2
ENTITIES
0
SPLINE
5
100
100
AcDbEntity
8
0
100
AcDbSpline
70
0
71
3
72
10
73
6
74
0
42
0.000000001
43
0.0000000001
44
0.0000000001
40
0
40
0
40
0
40
0
40
0.0015669043433845752
40
0.0015669043433845752
40
0.003133808686770447
40
0.003133808686770447
40
0.003133808686770447
40
0.003133808686770447
10
-0.11071655124525195
20
-0.1454466415327223
30
0
10
-0.11051153485140097
20
-0.1454625216204824
30
0
10
-0.11030665254233109
20
-0.14548008774452392
30
0
10
-0.10989719767599403
20
-0.14551858850000698
30
0
10
-0.10969263204409541
20
-0.14553952248026089
30
0
10
-0.10948824897244946
20
-0.1455621379386815
30
0
0
SPLINE
5
101
100
AcDbEntity
8
0
100
AcDbSpline
70
0
71
3
72
23
73
19
74
0
42
0.000000001
43
0.0000000001
44
0.0000000001
40
-0.63872883289403137
40
-0.63872883289403137
40
-0.63872883289403137
40
-0.63872883289403137
40
-0.56362550301381353
40
-0.56362550301381353
40
-0.56362550301381353
40
-0.48115051608292891
40
-0.48115051608292891
40
-0.48115051608292891
40
-0.38798837539725628
40
-0.38798837539725628
40
-0.38798837539725628
40
-0.28622278129760742
40
-0.28622278129760742
40
-0.28622278129760742
40
-0.15995631567162913
40
-0.15995631567162913
40
-0.15995631567162913
40
-0.019430930087857595
40
-0.019430930087857595
40
-0.019430930087857595
40
-0.019430930087857595
10
-0.11071655124525252
20
-0.1454466415327223
30
0
10
-0.1253569459760483
20
-0.14431263098458899
30
0
10
-0.14800049205071628
20
-0.1406533883697357
30
0
10
-0.17024380329221009
20
-0.13515337154076967
30
0
10
-0.19467037408298155
20
-0.12911350863705973
30
0
10
-0.21624985772274546
20
-0.12149686048491555
30
0
10
-0.23156702734814719
20
-0.11300068841171408
30
0
10
-0.24886900416135749
20
-0.10340357773091352
30
0
10
-0.26175460983067733
20
-0.091520399062814603
30
0
10
-0.27331105030061881
20
-0.077130118600951786
30
0
10
-0.28593471933017439
20
-0.061410906593973365
30
0
10
-0.29412357869876488
20
-0.044927354178386364
30
0
10
-0.29728656057659508
20
-0.026729795952099854
30
0
10
-0.30121105535389253
20
-0.0041510316793123819
30
0
10
-0.29928437975375216
20
0.025025962527073536
30
0
10
-0.29222997736856393
20
0.046978352612382215
30
0
10
-0.28437894098826244
20
0.07140976491120464
30
0
10
-0.26923055271243462
20
0.087299421410490588
30
0
10
-0.25706682872533526
20
0.096337540517600725
30
0
0
SPLINE
5
102
100
AcDbEntity
8
0
100
AcDbSpline
70
4
71
5
72
66
73
60
74
0
42
0.000000001
43
0.0000000001
44
0.0000000001
40
-1
40
-1
40
-1
40
-1
40
-1
40
-1
40
-0.98181818181818203
40
-0.96363636363636385
40
-0.94545454545454566
40
-0.92727272727272747
40
-0.90909090909090928
40
-0.89090909090909109
40
-0.87272727272727291
40
-0.85454545454545472
40
-0.83636363636363653
40
-0.81818181818181834
40
-0.80000000000000016
40
-0.78181818181818197
40
-0.76363636363636378
40
-0.74545454545454559
40
-0.7272727272727274
40
-0.70909090909090922
40
-0.69090909090909103
40
-0.67272727272727284
40
-0.65454545454545465
40
-0.63636363636363646
40
-0.61818181818181828
40
-0.60000000000000009
40
-0.5818181818181819
40
-0.56363636363636371
40
-0.54545454545454553
40
-0.52727272727272734
40
-0.50909090909090915
40
-0.49090909090909102
40
-0.47272727272727283
40
-0.45454545454545464
40
-0.43636363636363645
40
-0.41818181818181827
40
-0.40000000000000008
40
-0.38181818181818189
40
-0.3636363636363637
40
-0.34545454545454551
40
-0.32727272727272733
40
-0.30909090909090914
40
-0.29090909090909095
40
-0.27272727272727276
40
-0.25454545454545457
40
-0.23636363636363641
40
-0.21818181818181823
40
-0.20000000000000004
40
-0.18181818181818185
40
-0.16363636363636366
40
-0.14545454545454548
40
-0.12727272727272729
40
-0.1090909090909091
40
-0.090909090909090912
40
-0.072727272727272724
40
-0.054545454545454543
40
-0.036363636363636362
40
-0.018181818181818181
40
0
40
0
40
0
40
0
40
0
40
0
41
1
41
1
41
1
41
1
41
1
41
1
41
1
41
1
41
1
41
1
41
1
41
1
41
1
41
1
41
1
41
1
41
1
41
1
41
1
41
1
41
1
41
1
41
1
41
1
41
1
41
1
41
1
41
1
41
1
41
1
41
1
41
1
41
1
41
1
41
1
41
1
41
1
41
1
41
1
41
1
41
1
41
1
41
1
41
1
41
1
41
1
41
1
41
1
41
1
41
1
41
1
41
1
41
1
41
1
41
1
41
1
41
1
41
1
41
1
41
1
10
-0.25706682872507552
20
0.096337540517793668
30
0
10
-0.25583636491681594
20
0.097097259082555967
30
0
10
-0.25339021952797425
20
0.098578285956989267
30
0
10
-0.24976534811287102
20
0.10068459556605296
30
0
10
-0.24502092743053969
20
0.10326242237984076
30
0
10
-0.23923851145341421
20
0.10610055312896841
30
0
10
-0.23360435175816444
20
0.10855623999409174
30
0
10
-0.22811837524860407
20
0.11063386171013098
30
0
10
-0.22278014270784005
20
0.11234153388021471
30
0
10
-0.21758866780385769
20
0.11369232691301571
30
0
10
-0.21254230717818745
20
0.11470517151512638
30
0
10
-0.20763846752132545
20
0.11540657006502053
30
0
10
-0.20287393679972085
20
0.11582956681393715
30
0
10
-0.19824602845408071
20
0.11600916918719134
30
0
10
-0.19375349556102647
20
0.11597874806233265
30
0
10
-0.18939758820147823
20
0.11576588711544171
30
0
10
-0.18518293714391465
20
0.11538882373429507
30
0
10
-0.18111879199279074
20
0.11485175271495031
30
0
10
-0.17721926419260131
20
0.11414325674575611
30
0
10
-0.17349931361251361
20
0.11324772403812038
30
0
10
-0.1699715310465022
20
0.11215459780337805
30
0
10
-0.1666422549445335
20
0.11086899253429207
30
0
10
-0.16350875782510313
20
0.10942058403552368
30
0
10
-0.16055392483545958
20
0.10787627416878173
30
0
10
-0.15775231279916496
20
0.10633594522283406
30
0
10
-0.15508161072489723
20
0.10491975308580984
30
0
10
-0.15253285418646167
20
0.10375825162135721
30
0
10
-0.15012017834695213
20
0.10298107828855843
30
0
10
-0.1478933366993849
20
0.10270702299646461
30
0
10
-0.14593540267598426
20
0.10302843779163175
30
0
10
-0.14435465780839138
20
0.10399137113447333
30
0
10
-0.14327728527895331
20
0.10558032396606611
30
0
10
-0.1428424491261539
20
0.10769290574684903
30
0
10
-0.14318389411303981
20
0.11015540649108824
30
0
10
-0.144401171726314
20
0.11276605295937621
30
0
10
-0.14653560748241293
20
0.11532845315267709
30
0
10
-0.14954034964761725
20
0.11769238355132042
30
0
10
-0.15326434268324238
20
0.1197815075684803
30
0
10
-0.15749352575984005
20
0.12157239597128243
30
0
10
-0.16198323639379897
20
0.12308067421475007
30
0
10
-0.16649483841595508
20
0.12434420119784251
30
0
10
-0.17082848227020306
20
0.12540826770750008
30
0
10
-0.17486250779373741
20
0.12630831198214421
30
0
10
-0.17857490011127466
20
0.12705880235518172
30
0
10
-0.18200107630295032
20
0.12766335590767014
30
0
10
-0.18520234510747191
20
0.12812138140943241
30
0
10
-0.18822941090000458
20
0.128436257158593
30
0
10
-0.19108997786460979
20
0.12862243467885126
30
0
10
-0.19370916958665538
20
0.1287141729596612
30
0
10
-0.1959646958905161
20
0.12875856101127653
30
0
10
-0.19773387820181595
20
0.12880628308932141
30
0
10
-0.19893075201906726
20
0.12890400232023896
30
0
10
-0.19956112534984469
20
0.12908411780902565
30
0
10
-0.19971174898291769
20
0.12936397623013998
30
0
10
-0.19949575030922989
20
0.12975170696776248
30
0
10
-0.19900298070726391
20
0.13025060448049863
30
0
10
-0.19842032296451967
20
0.13074008061979395
30
0
10
-0.1978842350459224
20
0.13115818277160612
30
0
10
-0.1974827516386902
20
0.13145957493563409
30
0
10
-0.19727099128424819
20
0.1316159350711516
30
0
0
SPLINE
5
103
100
AcDbEntity
8
0
100
AcDbSpline
70
4
71
5
72
16
73
10
74
0
42
0.000000001
43
0.0000000001
44
0.0000000001
40
-0.27143814696134794
40
-0.27143814696134794
40
-0.27143814696134794
40
-0.27143814696134794
40
-0.27143814696134794
40
-0.27143814696134794
40
-0.26666666666666666
40
-0.20000000000000001
40
-0.13333333333333333
40
-0.066666666666666666
40
0
40
0
40
0
40
0
40
0
40
0
41
1
41
1
41
1
41
1
41
1
41
1
41
1
41
1
41
1
41
1
10
-0.19727099128424816
20
0.13161593507115157
30
0
10
-0.19722360756451154
20
0.13164839394938588
30
0
10
-0.19651242017950202
20
0.13213499090639316
30
0
10
-0.19508639233630193
20
0.13309382387465582
30
0
10
-0.19281990484906031
20
0.13456869224259813
30
0
10
-0.18950439520199283
20
0.13663055369784288
30
0
10
-0.18584559583689833
20
0.13879236672772219
30
0
10
-0.18287830564078059
20
0.14048911401328884
30
0
10
-0.18080164179066296
20
0.14165353981671142
30
0
10
-0.17973869171996881
20
0.14224406811662937
30
0
0
SPLINE
5
104
100
AcDbEntity
8
0
100
AcDbSpline
70
0
71
3
72
26
73
22
74
0
42
0.000000001
43
0.0000000001
44
0.0000000001
40
-0.88204155273248674
40
-0.88204155273248674
40
-0.88204155273248674
40
-0.88204155273248674
40
-0.87010285565856871
40
-0.87010285565856871
40
-0.87010285565856871
40
-0.83074547119469244
40
-0.83074547119469244
40
-0.83074547119469244
40
-0.78183166710798135
40
-0.78183166710798135
40
-0.78183166710798135
40
-0.74089466864587528
40
-0.74089466864587528
40
-0.74089466864587528
40
-0.71038090559887601
40
-0.71038090559887601
40
-0.71038090559887601
40
-0.69064633129138575
40
-0.69064633129138575
40
-0.69064633129138575
40
-0.68902823558675097
40
-0.68902823558675097
40
-0.68902823558675097
40
-0.68902823558675097
10
-0.17973869171996879
20
0.14224406811662937
30
0
10
-0.17636218765795053
20
0.14387054492120238
30
0
10
-0.17248280115080483
20
0.14570356759530814
30
0
10
-0.16851091343993674
20
0.14752655476211246
30
0
10
-0.15541709669292383
20
0.15353625635286444
30
0
10
-0.13741621178820718
20
0.15777552240170109
30
0
10
-0.12032608662694769
20
0.1562321513065435
30
0
10
-0.099086285117208642
20
0.15431403219344744
30
0
10
-0.083231968298047423
20
0.14565046925918312
30
0
10
-0.069053144502648878
20
0.13393696414786116
30
0
10
-0.057186586610775615
20
0.12413368366945046
30
0
10
-0.047171736895166128
20
0.11349942669434422
30
0
10
-0.040478302328041164
20
0.10381269421550782
30
0
10
-0.03548912666727784
20
0.09659236369145896
30
0
10
-0.030748608544588728
20
0.087491933597285854
30
0
10
-0.02738628278407107
20
0.079309078643925099
30
0
10
-0.025211720850666738
20
0.074016871357797095
30
0
10
-0.024372599463663529
20
0.070850713441651308
30
0
10
-0.023531926765406764
20
0.067356451932208267
30
0
10
-0.023462997541960753
20
0.067069947168983929
30
0
10
-0.023398413654395642
20
0.066736445192221383
30
0
10
-0.023322042306173935
20
0.066360442830057362
30
0
0
ELLIPSE
5
105
100
AcDbEntity
8
0
100
AcDbEllipse
10
-0.029597624182923669
20
0.076510441355660555
30
0
11
-0.0067106846536448437
21
0.018784431032564188
31
0.0
40
0.15423278649978853
41
4.0019285638356781
42
4.0874753378238822
0
SPLINE
5
106
100
AcDbEntity
8
0
100
AcDbSpline
70
4
71
5
72
21
73
15
74
0
42
0.000000001
43
0.0000000001
44
0.0000000001
40
-0.93225772977711696
40
-0.93225772977711696
40
-0.93225772977711696
40
-0.93225772977711696
40
-0.93225772977711696
40
-0.93225772977711696
40
-0.89999999999999991
40
-0.79999999999999993
40
-0.69999999999999996
40
-0.59999999999999998
40
-0.5
40
-0.40000000000000002
40
-0.30000000000000004
40
-0.20000000000000001
40
-0.10000000000000001
40
0
40
0
40
0
40
0
40
0
40
0
41
1
41
1
41
1
41
1
41
1
41
1
41
1
41
1
41
1
41
1
41
1
41
1
41
1
41
1
41
1
10
-0.023024793187988959
20
0.06504415691669771
30
0
10
-0.022998677000535189
20
0.064922342482720899
30
0
10
-0.022893752237879521
20
0.06442637834012338
30
0
10
-0.022725045531337123
20
0.063580551731565724
30
0
10
-0.022523452432576394
20
0.062434798517239688
30
0
10
-0.022339047783056683
20
0.061070053658563786
30
0
10
-0.022244221583016914
20
0.059682923024565009
30
0
10
-0.022278119313504208
20
0.058503846296432474
30
0
10
-0.022447350358344938
20
0.057543506088622583
30
0
10
-0.022747932813046188
20
0.056795466528813093
30
0
10
-0.023170514742804106
20
0.056244612272448945
30
0
10
-0.023598459429981563
20
0.055949198723245629
30
0
10
-0.023966803476762402
20
0.055804226844892016
30
0
10
-0.02423308453441592
20
0.055741065595194844
30
0
10
-0.024371404712382951
20
0.055717856733315717
30
0
0
SPLINE
5
107
100
AcDbEntity
8
0
100
AcDbSpline
70
4
71
5
72
51
73
45
74
0
42
0.000000001
43
0.0000000001
44
0.0000000001
40
-1
40
-1
40
-1
40
-1
40
-1
40
-1
40
-0.97500000000000053
40
-0.95000000000000051
40
-0.92500000000000049
40
-0.90000000000000047
40
-0.87500000000000044
40
-0.85000000000000042
40
-0.8250000000000004
40
-0.80000000000000038
40
-0.77500000000000036
40
-0.75000000000000033
40
-0.72500000000000031
40
-0.70000000000000029
40
-0.67500000000000027
40
-0.65000000000000024
40
-0.62500000000000022
40
-0.6000000000000002
40
-0.57500000000000018
40
-0.55000000000000016
40
-0.52500000000000013
40
-0.50000000000000011
40
-0.47500000000000014
40
-0.45000000000000012
40
-0.4250000000000001
40
-0.40000000000000008
40
-0.37500000000000006
40
-0.35000000000000003
40
-0.32500000000000001
40
-0.29999999999999999
40
-0.27499999999999997
40
-0.24999999999999997
40
-0.22499999999999998
40
-0.19999999999999998
40
-0.17499999999999999
40
-0.14999999999999999
40
-0.125
40
-0.10000000000000001
40
-0.075000000000000011
40
-0.050000000000000003
40
-0.025000000000000001
40
-0.014171014475155463
40
-0.014171014475155463
40
-0.014171014475155463
40
-0.014171014475155463
40
-0.014171014475155463
40
-0.014171014475155463
41
1
41
1
41
1
41
1
41
1
41
1
41
1
41
1
41
1
41
1
41
1
41
1
41
1
41
1
41
1
41
1
41
1
41
1
41
1
41
1
41
1
41
1
41
1
41
1
41
1
41
1
41
1
41
1
41
1
41
1
41
1
41
1
41
1
41
1
41
1
41
1
41
1
41
1
41
1
41
1
41
1
41
1
41
1
41
1
41
1
10
-0.024371404712382951
20
0.055717856733315717
30
0
10
-0.025544765700046178
20
0.055259974055945509
30
0
10
-0.027886287039385629
20
0.054327967115388918
30
0
10
-0.031382967359509226
20
0.052881231664996101
30
0
10
-0.036013970784365218
20
0.050854704202954314
30
0
10
-0.041746610769721706
20
0.048161318610926061
30
0
10
-0.047411251716123877
20
0.045315816985012192
30
0
10
-0.052984393203999225
20
0.042335123771387144
30
0
10
-0.058426879553646408
20
0.039248364948888351
30
0
10
-0.063680338657579105
20
0.036099607419944758
30
0
10
-0.068662218535012406
20
0.032952427038820467
30
0
10
-0.073272432043499425
20
0.02987984185033583
30
0
10
-0.077402057170228758
20
0.02695225423767569
30
0
10
-0.080941103496049091
20
0.024225191739058988
30
0
10
-0.083787122325426303
20
0.021729090290152263
30
0
10
-0.085852443611937654
20
0.019453195816461648
30
0
10
-0.087076244917787857
20
0.017349032400138884
30
0
10
-0.08744967824670051
20
0.015372263059604492
30
0
10
-0.08703261654902926
20
0.013511292250693122
30
0
10
-0.085986858356107101
20
0.011831611832655024
30
0
10
-0.084556056797315621
20
0.010476221080744461
30
0
10
-0.082968724135756886
20
0.0096071036558891647
30
0
10
-0.081368089140305286
20
0.0093643985725109669
30
0
10
-0.079712063508244516
20
0.0098108623423494509
30
0
10
-0.07782695860771674
20
0.010938795617726106
30
0
10
-0.075496277201279827
20
0.012690384749343288
30
0
10
-0.072537660683297853
20
0.014973328413894723
30
0
10
-0.068884213137187622
20
0.017678140061633409
30
0
10
-0.064558128061283138
20
0.020685890031336064
30
0
10
-0.059646707482991862
20
0.023876159753763844
30
0
10
-0.054277142555279927
20
0.027135171203169123
30
0
10
-0.048593523769969713
20
0.030363135039930995
30
0
10
-0.042729440658194763
20
0.033483734843973316
30
0
10
-0.036796949967452412
20
0.036445706140782082
30
0
10
-0.030890851829870551
20
0.039216931626031834
30
0
10
-0.025088704286529862
20
0.041780718716639215
30
0
10
-0.019452478962909209
20
0.044131195950027728
30
0
10
-0.014029505402497595
20
0.046269318216625818
30
0
10
-0.0088534837943613828
20
0.048198262932420292
30
0
10
-0.0039459266845052535
20
0.049920420724821016
30
0
10
0.00015642674489089125
20
0.051265806529121313
30
0
10
0.0031648163345663078
20
0.052187904474114089
30
0
10
0.0052119615158359332
20
0.052781459001923083
30
0
10
0.0063882735590087454
20
0.053110291559081882
30
0
10
0.0067411102888955436
20
0.053207780617494815
30
0
0
ELLIPSE
5
108
100
AcDbEntity
8
0
100
AcDbEllipse
10
-0.1766691971277361
20
-0.076914028736210976
30
0
11
-0.2098781592953993
21
-0.13018855730946527
31
0.0
40
0.13483528188141086
41
3.5497208624364465
42
3.5720177928113488
0
SPLINE
5
109
100
AcDbEntity
8
0
100
AcDbSpline
70
0
71
3
72
23
73
19
74
0
42
0.000000001
43
0.0000000001
44
0.0000000001
40
-0.65566506667483659
40
-0.65566506667483659
40
-0.65566506667483659
40
-0.65566506667483659
40
-0.65310122617535082
40
-0.65310122617535082
40
-0.65310122617535082
40
-0.61718509314780401
40
-0.61718509314780401
40
-0.61718509314780401
40
-0.56249724931177603
40
-0.56249724931177603
40
-0.56249724931177603
40
-0.52488475327153417
40
-0.52488475327153417
40
-0.52488475327153417
40
-0.49331525888686123
40
-0.49331525888686123
40
-0.49331525888686123
40
-0.49088497821285615
40
-0.49088497821285615
40
-0.49088497821285615
40
-0.49088497821285615
10
0.0090036426690795375
20
0.053813172559286332
30
0
10
0.009808987429127395
20
0.054032283487955295
30
0
10
0.010633057782028006
20
0.054257678379646929
30
0
10
0.011486090057933275
20
0.054484154352728076
30
0
10
0.023435983471486004
20
0.057656793671889035
30
0
10
0.037459096035379953
20
0.061435630523664873
30
0
10
0.050866285429909411
20
0.063068718168142995
30
0
10
0.071280796071289496
20
0.065555345612229685
30
0
10
0.093793680641185401
20
0.066354153704756641
30
0
10
0.11429387848130272
20
0.065245338512097822
30
0
10
0.12839323870470973
20
0.0644827319780336
30
0
10
0.13969133351743007
20
0.062852158813020392
30
0
10
0.14858349771080651
20
0.061046992822226823
30
0
10
0.15604700471310815
20
0.05953185334441103
30
0
10
0.16515698705831666
20
0.057102553436926155
30
0
10
0.17036616389714007
20
0.055220609539334713
30
0
10
0.17076717639498395
20
0.055075733861943477
30
0
10
0.17115057693041896
20
0.054916749366072271
30
0
10
0.17153275250063918
20
0.054749465371945062
30
0
0
ARC
5
110
100
AcDbEntity
8
0
100
AcDbCircle
10
0.15374823509675659
20
0.013172302915613008
30
0
40
0.045221117823526114
210
0
220
-0
230
1
100
AcDbArc
50
64.82336974431405
51
66.841315214584625
0
SPLINE
5
111
100
AcDbEntity
8
0
100
AcDbSpline
70
4
71
5
72
61
73
55
74
0
42
0.000000001
43
0.0000000001
44
0.0000000001
40
0
40
0
40
0
40
0
40
0
40
0
40
0.02
40
0.040000000000000001
40
0.059999999999999998
40
0.080000000000000002
40
0.10000000000000001
40
0.12000000000000001
40
0.14000000000000001
40
0.16
40
0.17999999999999999
40
0.19999999999999998
40
0.21999999999999997
40
0.23999999999999996
40
0.25999999999999995
40
0.27999999999999997
40
0.29999999999999999
40
0.32000000000000001
40
0.34000000000000002
40
0.36000000000000004
40
0.38000000000000006
40
0.40000000000000008
40
0.4200000000000001
40
0.44000000000000011
40
0.46000000000000013
40
0.48000000000000015
40
0.50000000000000011
40
0.52000000000000013
40
0.54000000000000015
40
0.56000000000000016
40
0.58000000000000018
40
0.6000000000000002
40
0.62000000000000022
40
0.64000000000000024
40
0.66000000000000025
40
0.68000000000000027
40
0.70000000000000029
40
0.72000000000000031
40
0.74000000000000032
40
0.76000000000000034
40
0.78000000000000036
40
0.80000000000000038
40
0.8200000000000004
40
0.84000000000000041
40
0.86000000000000043
40
0.88000000000000045
40
0.90000000000000047
40
0.92000000000000048
40
0.9400000000000005
40
0.96000000000000052
40
0.98000000000000054
40
1
40
1
40
1
40
1
40
1
40
1
41
1
41
1
41
1
41
1
41
1
41
1
41
1
41
1
41
1
41
1
41
1
41
1
41
1
41
1
41
1
41
1
41
1
41
1
41
1
41
1
41
1
41
1
41
1
41
1
41
1
41
1
41
1
41
1
41
1
41
1
41
1
41
1
41
1
41
1
41
1
41
1
41
1
41
1
41
1
41
1
41
1
41
1
41
1
41
1
41
1
41
1
41
1
41
1
41
1
41
1
41
1
41
1
41
1
41
1
41
1
10
0.17298575473817296
20
0.054097432197936793
30
0
10
0.17360721144029803
20
0.053870401461347903
30
0
10
0.17484494722435509
20
0.053406140888952042
30
0
10
0.17668601721124505
20
0.052679153549927402
30
0
10
0.17910969679686722
20
0.051648597162691628
30
0
10
0.18208250311097673
20
0.050262978612190319
30
0
10
0.18498386652418544
20
0.048794145644144651
30
0
10
0.18778437734087949
20
0.047271078277558512
30
0
10
0.19043560521141842
20
0.045741910016935401
30
0
10
0.19286352493919706
20
0.044280577760077461
30
0
10
0.19498664215371411
20
0.042969934806340086
30
0
10
0.19673923180611036
20
0.041880427062972202
30
0
10
0.19808965937584391
20
0.041052509197908323
30
0
10
0.19906824638897488
20
0.040472264197705263
30
0
10
0.19976607494261248
20
0.04006719070113781
30
0
10
0.20027215478254562
20
0.039743182046887621
30
0
10
0.2006290490304351
20
0.039410666199409639
30
0
10
0.20076852808146645
20
0.039019787161107176
30
0
10
0.20056063157931908
20
0.038550802799973263
30
0
10
0.19987613568679979
20
0.037998035363740607
30
0
10
0.19865774356588176
20
0.037353861043382827
30
0
10
0.19692821298235902
20
0.036602392160395396
30
0
10
0.19475358119248196
20
0.035720344553827187
30
0
10
0.19222201532336777
20
0.034676023991248001
30
0
10
0.18941195416652939
20
0.033428254601336749
30
0
10
0.18638214090750505
20
0.031928573905550088
30
0
10
0.18317908827451321
20
0.030127054515871787
30
0
10
0.1798399235883642
20
0.027977148647565488
30
0
10
0.1763970044913539
20
0.025440844729615344
30
0
10
0.1728819713597517
20
0.022493962519766791
30
0
10
0.1693294292399786
20
0.019130716646479244
30
0
10
0.16577566372992425
20
0.015362570968478028
30
0
10
0.16225793932092331
20
0.011217793102554522
30
0
10
0.15881357243403496
20
0.0067407240070207538
30
0
10
0.15547910448391894
20
0.0019913885337514989
30
0
10
0.15228941978342808
20
-0.0029553670437144097
30
0
10
0.14927690197414428
20
-0.0080095608988762466
30
0
10
0.14647049313367386
20
-0.013069321942250099
30
0
10
0.14389460753815023
20
-0.018030997842814572
30
0
10
0.14156803627602554
20
-0.022797901187446248
30
0
10
0.13950288682306913
20
-0.027289354480931338
30
0
10
0.13770336380748702
20
-0.031450245821961702
30
0
10
0.13616486805850797
20
-0.035259042008643611
30
0
10
0.13487223514140331
20
-0.03874002671680507
30
0
10
0.13380120984247998
20
-0.041959310044248743
30
0
10
0.13292252769824023
20
-0.04500767760440226
30
0
10
0.13220532596377707
20
-0.047986900460813948
30
0
10
0.13162061589892668
20
-0.050995466685733189
30
0
10
0.13114520858272508
20
-0.054112658029081738
30
0
10
0.13076387602031533
20
-0.057389543037953718
30
0
10
0.13046724670300142
20
-0.060856867893801431
30
0
10
0.13029390559948292
20
-0.063794967273912276
30
0
10
0.13019911239422849
20
-0.066093062240645317
30
0
10
0.13015155775026435
20
-0.067667103461982236
30
0
10
0.1301316905797183
20
-0.068464618770350469
30
0
0
SPLINE
5
112
100
AcDbEntity
8
0
100
AcDbSpline
70
4
71
5
72
21
73
15
74
0
42
0.000000001
43
0.0000000001
44
0.0000000001
40
0
40
0
40
0
40
0
40
0
40
0
40
0.10000000000000001
40
0.20000000000000001
40
0.30000000000000004
40
0.40000000000000002
40
0.5
40
0.59999999999999998
40
0.69999999999999996
40
0.79999999999999993
40
0.89999999999999991
40
0.99980444192952278
40
0.99980444192952278
40
0.99980444192952278
40
0.99980444192952278
40
0.99980444192952278
40
0.99980444192952278
41
1
41
1
41
1
41
1
41
1
41
1
41
1
41
1
41
1
41
1
41
1
41
1
41
1
41
1
41
1
10
0.1301316905797183
20
-0.068464618770350469
30
0
10
0.1301360069184416
20
-0.068565417951454113
30
0
10
0.13013843020493951
20
-0.068762919032417186
30
0
10
0.13012343748347313
20
-0.069046879154329763
30
0
10
0.1300655744569745
20
-0.069400502239312795
30
0
10
0.12992584907113869
20
-0.069798059288492115
30
0
10
0.12971273713050779
20
-0.070147192046639426
30
0
10
0.12942030167890675
20
-0.070443982999246521
30
0
10
0.12904539662335121
20
-0.070686356189453001
30
0
10
0.1285913994297278
20
-0.070876540246081185
30
0
10
0.12806453148632332
20
-0.071018448815691415
30
0
10
0.12758948943218013
20
-0.0710966037855741
30
0
10
0.12720504949056313
20
-0.071136591737974181
30
0
10
0.12693651203453354
20
-0.071155107183642263
30
0
10
0.12679929881216387
20
-0.071162326199364676
30
0
0
LINE
5
113
100
AcDbEntity
8
0
100
AcDbLine
10
0.12679929881216387
20
-0.071162326199364662
30
0
11
0.12679795440755914
21
-0.071162396846588816
31
0
0
SPLINE
5
114
100
AcDbEntity
8
0
100
AcDbSpline
70
0
71
3
72
17
73
13
74
0
42
0.000000001
43
0.0000000001
44
0.0000000001
40
-1.0005158989762466
40
-1.0005158989762466
40
-1.0005158989762466
40
-1.0005158989762466
40
-1
40
-1
40
-1
40
-0.93314233689251513
40
-0.93314233689251513
40
-0.93314233689251513
40
-0.80926035007102415
40
-0.80926035007102415
40
-0.80926035007102415
40
-0.7447154609658988
40
-0.7447154609658988
40
-0.7447154609658988
40
-0.7447154609658988
10
0.12679795440755931
20
-0.071162396846588538
30
0
10
0.12657782780619989
20
-0.071182743735400164
30
0
10
0.12635770120483997
20
-0.071203090624211846
30
0
10
0.12613757460348005
20
-0.071223437513023527
30
0
10
0.096975494537625717
20
-0.073918966344848097
30
0
10
0.070105134589844603
20
-0.078327166941908097
30
0
10
0.045668345022950717
20
-0.084357891298305399
30
0
10
0.00038889757623632528
20
-0.095532348802782802
30
0
10
-0.037077472184484157
20
-0.11368195872331555
30
0
10
-0.059890444323105634
20
-0.12711389012429031
30
0
10
-0.071776439976108788
20
-0.13411218378253478
30
0
10
-0.079058403151550757
20
-0.13890471936591098
30
0
10
-0.083549733522555486
20
-0.14159793280094937
30
0
0
SPLINE
5
115
100
AcDbEntity
8
0
100
AcDbSpline
70
0
71
3
72
10
73
6
74
0
42
0.000000001
43
0.0000000001
44
0.0000000001
40
0
40
0
40
0
40
0
40
0.0043476971120075735
40
0.0043476971120075735
40
0.0086953942240145764
40
0.0086953942240145764
40
0.0086953942240145764
40
0.0086953942240145764
10
-0.086441143250651706
20
-0.14343004613927057
30
0
10
-0.085966853393999301
20
-0.14311288320809273
30
0
10
-0.085488675869381997
20
-0.14280157286238124
30
0
10
-0.084524763006189108
20
-0.14219079895632611
30
0
10
-0.08403906421054877
20
-0.14189135855105403
30
0
10
-0.083549733522555403
20
-0.14159793280094929
30
0
0
SPLINE
5
116
100
AcDbEntity
8
0
100
AcDbSpline
70
4
71
5
72
30
73
24
74
0
42
0.000000001
43
0.0000000001
44
0.0000000001
40
-0.9485056032187491
40
-0.9485056032187491
40
-0.9485056032187491
40
-0.9485056032187491
40
-0.9485056032187491
40
-0.9485056032187491
40
-0.90000000000000024
40
-0.8500000000000002
40
-0.80000000000000016
40
-0.75000000000000011
40
-0.70000000000000007
40
-0.65000000000000002
40
-0.59999999999999998
40
-0.54999999999999993
40
-0.49999999999999994
40
-0.44999999999999996
40
-0.39999999999999997
40
-0.34999999999999998
40
-0.29999999999999999
40
-0.25
40
-0.20000000000000001
40
-0.15000000000000002
40
-0.10000000000000001
40
-0.050000000000000003
40
-0.014065082935153664
40
-0.014065082935153664
40
-0.014065082935153664
40
-0.014065082935153664
40
-0.014065082935153664
40
-0.014065082935153664
41
1
41
1
41
1
41
1
41
1
41
1
41
1
41
1
41
1
41
1
41
1
41
1
41
1
41
1
41
1
41
1
41
1
41
1
41
1
41
1
41
1
41
1
41
1
41
1
10
-0.086441143250651303
20
-0.14343004613927032
30
0
10
-0.086671193800230362
20
-0.14358388351445384
30
0
10
-0.087127180609329363
20
-0.14388280571603809
30
0
10
-0.08778033407201398
20
-0.14429209195535267
30
0
10
-0.088584655277816296
20
-0.14475569493222917
30
0
10
-0.089481927442005726
20
-0.14519877990900232
30
0
10
-0.090286848000264874
20
-0.14551311380841783
30
0
10
-0.091018849554409795
20
-0.14571180897861549
30
0
10
-0.091717458545491862
20
-0.14582121716725988
30
0
10
-0.092429826691899156
20
-0.14587265156512322
30
0
10
-0.093203974768950371
20
-0.14589705085522012
30
0
10
-0.094082426302925917
20
-0.14592001559441428
30
0
10
-0.095094466233787117
20
-0.14595574890080784
30
0
10
-0.096252245454262933
20
-0.14600426276008482
30
0
10
-0.097556497078090262
20
-0.14605661791782079
30
0
10
-0.099000128886508415
20
-0.1460985394061608
30
0
10
-0.10057220203983391
20
-0.14611434877369053
30
0
10
-0.10226185441841146
20
-0.14609123457697654
30
0
10
-0.10406092003911725
20
-0.14602175377592827
30
0
10
-0.1058563141755532
20
-0.1459086730767242
30
0
10
-0.10733996630874093
20
-0.1457837730818147
30
0
10
-0.10846067430054161
20
-0.14567331630765037
30
0
10
-0.10918348975912608
20
-0.14559586024876187
30
0
10
-0.10948824897244862
20
-0.14556213793868164
30
0
0
SPLINE
5
117
100
AcDbEntity
8
0
100
AcDbSpline
70
0
71
3
72
10
73
6
74
0
42
0.000000001
43
0.0000000001
44
0.0000000001
40
0
40
0
40
0
40
0
40
0.0035714322837904376
40
0.0035714322837904376
40
0.0071428645675799731
40
0.0071428645675799731
40
0.0071428645675799731
40
0.0071428645675799731
10
0.14670432402469366
20
-0.083798747723834596
30
0
10
0.14698685782894375
20
-0.084172708613893851
30
0
10
0.14726505445888211
20
-0.084549926644947315
30
0
10
0.14781266160341403
20
-0.085310725440036483
30
0
10
0.14808205378314751
20
-0.08569428073117677
30
0
10
0.14834698045559774
20
-0.086080914868394726
30
0
0
SPLINE
5
118
100
AcDbEntity
8
0
100
AcDbSpline
70
4
71
5
72
50
73
44
74
0
42
0.000000001
43
0.0000000001
44
0.0000000001
40
-0.99096291977398532
40
-0.99096291977398532
40
-0.99096291977398532
40
-0.99096291977398532
40
-0.99096291977398532
40
-0.99096291977398532
40
-0.97500000000000053
40
-0.95000000000000051
40
-0.92500000000000049
40
-0.90000000000000047
40
-0.87500000000000044
40
-0.85000000000000042
40
-0.8250000000000004
40
-0.80000000000000038
40
-0.77500000000000036
40
-0.75000000000000033
40
-0.72500000000000031
40
-0.70000000000000029
40
-0.67500000000000027
40
-0.65000000000000024
40
-0.62500000000000022
40
-0.6000000000000002
40
-0.57500000000000018
40
-0.55000000000000016
40
-0.52500000000000013
40
-0.50000000000000011
40
-0.47500000000000014
40
-0.45000000000000012
40
-0.4250000000000001
40
-0.40000000000000008
40
-0.37500000000000006
40
-0.35000000000000003
40
-0.32500000000000001
40
-0.29999999999999999
40
-0.27499999999999997
40
-0.24999999999999997
40
-0.22499999999999998
40
-0.19999999999999998
40
-0.17499999999999999
40
-0.14999999999999999
40
-0.125
40
-0.10000000000000001
40
-0.075000000000000011
40
-0.050000000000000003
40
-0.043722437469271201
40
-0.043722437469271201
40
-0.043722437469271201
40
-0.043722437469271201
40
-0.043722437469271201
40
-0.043722437469271201
41
1
41
1
41
1
41
1
41
1
41
1
41
1
41
1
41
1
41
1
41
1
41
1
41
1
41
1
41
1
41
1
41
1
41
1
41
1
41
1
41
1
41
1
41
1
41
1
41
1
41
1
41
1
41
1
41
1
41
1
41
1
41
1
41
1
41
1
41
1
41
1
41
1
41
1
41
1
41
1
41
1
41
1
41
1
41
1
10
0.14670432402469363
20
-0.083798747723834541
30
0
10
0.14634368485177737
20
-0.08332140680368523
30
0
10
0.14545979097037404
20
-0.082064232888493419
30
0
10
0.14420818562516208
20
-0.07990649770653846
30
0
10
0.14286382747035062
20
-0.07663496512880949
30
0
10
0.14182061004493823
20
-0.071946958992724935
30
0
10
0.14148496757965606
20
-0.066296614499781512
30
0
10
0.14192270448776775
20
-0.060084531040090094
30
0
10
0.14310479485741812
20
-0.053371753605208447
30
0
10
0.14498384892457944
20
-0.046253644912731387
30
0
10
0.14749186338496548
20
-0.038862996445958926
30
0
10
0.15054616156073516
20
-0.031356068401732849
30
0
10
0.15405382132405809
20
-0.023901707400297321
30
0
10
0.15791662621538763
20
-0.01666927752540949
30
0
10
0.16203569667070752
20
-0.0098172320021589644
30
0
10
0.16631630135747058
20
-0.0034810941112737369
30
0
10
0.17067239819495827
20
0.0022377771365411194
30
0
10
0.17503180180685701
20
0.007285623039899717
30
0
10
0.17933554662173026
20
0.011649844581388886
30
0
10
0.1835364438135246
20
0.015349893581315669
30
0
10
0.18759803544486978
20
0.018429341941985401
30
0
10
0.19149330037175402
20
0.020947504257971379
30
0
10
0.19520383502577732
20
0.02297163732182957
30
0
10
0.19871803776712932
20
0.024568289908533488
30
0
10
0.20203771087003572
20
0.025801144195536592
30
0
10
0.20518685857284344
20
0.02673009395096379
30
0
10
0.20821887759812713
20
0.027409936463634033
30
0
10
0.21122670700260462
20
0.027889158115838333
30
0
10
0.21434576382020987
20
0.028208879106007209
30
0
10
0.21770785522047714
20
0.02840379504152039
30
0
10
0.22139613280714091
20
0.028502861346893393
30
0
10
0.22540684912331896
20
0.028530147422893514
30
0
10
0.22958998288996804
20
0.028505394382807681
30
0
10
0.23367188719992724
20
0.028445530687985315
30
0
10
0.23734657321956196
20
0.028366893048775019
30
0
10
0.24035115940257265
20
0.028287402920854108
30
0
10
0.24253974665535766
20
0.028228425594777545
30
0
10
0.24397943345434814
20
0.028217651995597264
30
0
10
0.24488613621940331
20
0.028285363500069358
30
0
10
0.24542894586672287
20
0.028433318959937875
30
0
10
0.24581589075200969
20
0.028613233738297873
30
0
10
0.24608930285294509
20
0.028771567832616529
30
0
10
0.24624489931942722
20
0.028870165777051086
30
0
10
0.2462762888228113
20
0.028890383086013577
30
0
0
SPLINE
5
119
100
AcDbEntity
8
0
100
AcDbSpline
70
0
71
3
72
10
73
6
74
0
42
0.000000001
43
0.0000000001
44
0.0000000001
40
0
40
0
40
0
40
0
40
0.0034386627339718602
40
0.0034386627339718602
40
0.0068773254679437281
40
0.0068773254679437281
40
0.0068773254679437281
40
0.0068773254679437281
10
0.24794826619222982
20
0.030954925511241335
30
0
10
0.24778809474969624
20
0.030533039288660302
30
0
10
0.24756174642457462
20
0.030139343527355179
30
0
10
0.24699373250109055
20
0.02943796510884189
30
0
10
0.24665567487397017
20
0.029134737541657262
30
0
10
0.24627628882281113
20
0.028890383086013521
30
0
0
SPLINE
5
120
100
AcDbEntity
8
0
100
AcDbSpline
70
4
71
5
72
26
73
20
74
0
42
0.000000001
43
0.0000000001
44
0.0000000001
40
-0.97503543852013208
40
-0.97503543852013208
40
-0.97503543852013208
40
-0.97503543852013208
40
-0.97503543852013208
40
-0.97503543852013208
40
-0.93333333333333324
40
-0.86666666666666659
40
-0.79999999999999993
40
-0.73333333333333328
40
-0.66666666666666663
40
-0.59999999999999998
40
-0.53333333333333333
40
-0.46666666666666662
40
-0.39999999999999997
40
-0.33333333333333331
40
-0.26666666666666666
40
-0.20000000000000001
40
-0.13333333333333333
40
-0.066666666666666666
40
-0.061333844255319452
40
-0.061333844255319452
40
-0.061333844255319452
40
-0.061333844255319452
40
-0.061333844255319452
40
-0.061333844255319452
41
1
41
1
41
1
41
1
41
1
41
1
41
1
41
1
41
1
41
1
41
1
41
1
41
1
41
1
41
1
41
1
41
1
41
1
41
1
41
1
10
0.24794826619222984
20
0.030954925511241353
30
0
10
0.24809027238637593
20
0.031328965077119811
30
0
10
0.2484246911900003
20
0.032278600374039033
30
0
10
0.24881937618856745
20
0.033718449764724712
30
0
10
0.24903775760399657
20
0.035495704384778878
30
0
10
0.24873128820127383
20
0.037385797216673101
30
0
10
0.24769407715863476
20
0.03897615625878624
30
0
10
0.24596034882856857
20
0.040124800230717482
30
0
10
0.24357170645259313
20
0.040867487489885598
30
0
10
0.24061891488946557
20
0.041275042819354978
30
0
10
0.23723915587121966
20
0.041436423914673261
30
0
10
0.23362420890417315
20
0.041444306057573217
30
0
10
0.23001335175563326
20
0.041381866611003536
30
0
10
0.22672768055279605
20
0.041307257294949919
30
0
10
0.22411262904969256
20
0.041243902475087649
30
0
10
0.22264653186413338
20
0.041214612405692755
30
0
10
0.22196113333134568
20
0.041208474079695016
30
0
10
0.22169109080936245
20
0.041211905220242026
30
0
10
0.22160281758146189
20
0.041215741821572068
30
0
10
0.22159656432875713
20
0.041216037267371358
30
0
0
LINE
5
121
100
AcDbEntity
8
0
100
AcDbLine
10
0.2212068590246544
20
0.041233661212131227
30
0
11
0.22159656432875713
21
0.041216037267371365
31
0
0
SPLINE
5
122
100
AcDbEntity
8
0
100
AcDbSpline
70
4
71
5
72
16
73
10
74
0
42
0.000000001
43
0.0000000001
44
0.0000000001
40
0.62213350690096769
40
0.62213350690096769
40
0.62213350690096769
40
0.62213350690096769
40
0.62213350690096769
40
0.62213350690096769
40
0.66666666666666663
40
0.73333333333333328
40
0.79999999999999993
40
0.86666666666666659
40
0.93168297155762159
40
0.93168297155762159
40
0.93168297155762159
40
0.93168297155762159
40
0.93168297155762159
40
0.93168297155762159
41
1
41
1
41
1
41
1
41
1
41
1
41
1
41
1
41
1
41
1
10
0.22120685902465437
20
0.04123366121213122
30
0
10
0.22112862110515558
20
0.041237041182497047
30
0
10
0.22093760514974417
20
0.041246684973412488
30
0
10
0.22064964242354332
20
0.041267115934131966
30
0
10
0.2202933708911099
20
0.041307172461301653
30
0
10
0.219911998439975
20
0.04138016994440722
30
0
10
0.21964911394445497
20
0.041463772216223979
30
0
10
0.21948710919798373
20
0.041538074431669153
30
0
10
0.21939463360601816
20
0.041592513418452749
30
0
10
0.21935262988537532
20
0.041620631629826502
30
0
0
SPLINE
5
123
100
AcDbEntity
8
0
100
AcDbSpline
70
0
71
3
72
10
73
6
74
0
42
0.000000001
43
0.0000000001
44
0.0000000001
40
0
40
0
40
0
40
0
40
0.0033849364287183129
40
0.0033849364287183129
40
0.0067698728574309038
40
0.0067698728574309038
40
0.0067698728574309038
40
0.0067698728574309038
10
0.2171208252165088
20
0.0430775248469654
30
0
10
0.21749558784456488
20
0.042839025261003041
30
0
10
0.21786896693455959
20
0.042598358603084426
30
0
10
0.21861292051529019
20
0.042112715329391037
30
0
10
0.2189834887755521
20
0.041867742780788871
30
0
10
0.21935262988537485
20
0.041620631629826634
30
0
0
SPLINE
5
124
100
AcDbEntity
8
0
100
AcDbSpline
70
4
71
5
72
31
73
25
74
0
42
0.000000001
43
0.0000000001
44
0.0000000001
40
-0.9527479594172934
40
-0.9527479594172934
40
-0.9527479594172934
40
-0.9527479594172934
40
-0.9527479594172934
40
-0.9527479594172934
40
-0.95000000000000029
40
-0.90000000000000024
40
-0.8500000000000002
40
-0.80000000000000016
40
-0.75000000000000011
40
-0.70000000000000007
40
-0.65000000000000002
40
-0.59999999999999998
40
-0.54999999999999993
40
-0.49999999999999994
40
-0.44999999999999996
40
-0.39999999999999997
40
-0.34999999999999998
40
-0.29999999999999999
40
-0.25
40
-0.20000000000000001
40
-0.15000000000000002
40
-0.10000000000000001
40
-0.050000000000000003
40
-0.037713719671496414
40
-0.037713719671496414
40
-0.037713719671496414
40
-0.037713719671496414
40
-0.037713719671496414
40
-0.037713719671496414
41
1
41
1
41
1
41
1
41
1
41
1
41
1
41
1
41
1
41
1
41
1
41
1
41
1
41
1
41
1
41
1
41
1
41
1
41
1
41
1
41
1
41
1
41
1
41
1
41
1
10
0.21712082521650711
20
0.043077524846966496
30
0
10
0.21709697748266632
20
0.043092701586111136
30
0
10
0.21663921927171967
20
0.043384084044839642
30
0
10
0.21574780152537762
20
0.043953914824286421
30
0
10
0.21442344924081594
20
0.044807459445835432
30
0
10
0.21266830170933543
20
0.04595230863375302
30
0
10
0.21051563261530173
20
0.04737739607912652
30
0
10
0.20838901881546179
20
0.048803631699035135
30
0
10
0.20631242619044662
20
0.050210383915226135
30
0
10
0.20432302558188409
20
0.051565111536437579
30
0
10
0.20246972003279615
20
0.052824887569010742
30
0
10
0.20080371745217501
20
0.053945631014089931
30
0
10
0.19937079844655972
20
0.05488968383988263
30
0
10
0.19820294155458498
20
0.055633975410824293
30
0
10
0.19730911279254573
20
0.056179014037289872
30
0
10
0.19666770584385176
20
0.056556135983028721
30
0
10
0.19623827826138054
20
0.056815148731684167
30
0
10
0.1959715197251638
20
0.057013629677103272
30
0
10
0.19581870447365157
20
0.05720679788290834
30
0
10
0.19574295162861824
20
0.057435107334837046
30
0
10
0.19572574681065427
20
0.057677752116262998
30
0
10
0.19573580634778484
20
0.057899158443870634
30
0
10
0.19575312127473804
20
0.058070077038329435
30
0
10
0.19576585760498988
20
0.058170368682734397
30
0
10
0.19576849142883718
20
0.058190365129486499
30
0
0
ARC
5
125
100
AcDbEntity
8
0
100
AcDbCircle
10
0.19638813948670555
20
0.058108748437688588
30
0
40
0.00062499999999997692
210
0
220
0
230
1
100
AcDbArc
50
117.54273579756646
51
172.49650283289725
0
SPLINE
5
126
100
AcDbEntity
8
0
100
AcDbSpline
70
4
71
5
72
16
73
10
74
0
42
0.000000001
43
0.0000000001
44
0.0000000001
40
-1
40
-1
40
-1
40
-1
40
-1
40
-1
40
-0.80000000000000004
40
-0.60000000000000009
40
-0.40000000000000002
40
-0.20000000000000001
40
0
40
0
40
0
40
0
40
0
40
0
41
1
41
1
41
1
41
1
41
1
41
1
41
1
41
1
41
1
41
1
10
0.19609913318126593
20
0.058662914798464943
30
0
10
0.19638409541340324
20
0.058811703340994927
30
0
10
0.19695909418520219
20
0.059106568627858673
30
0
10
0.19783680157112818
20
0.059540738482062074
30
0
10
0.19903330036744685
20
0.060105617977562191
30
0
10
0.20055801524363773
20
0.060796170407079714
30
0
10
0.20179206411745187
20
0.061340982488102595
30
0
10
0.20272299337660196
20
0.061746709647629489
30
0
10
0.2033458538652512
20
0.062015996800604864
30
0
10
0.20365784459085975
20
0.062150340846148164
30
0
0
SPLINE
5
127
100
AcDbEntity
8
0
100
AcDbSpline
70
0
71
3
72
23
73
19
74
0
42
0.000000001
43
0.0000000001
44
0.0000000001
40
-0.43989190211768903
40
-0.43989190211768903
40
-0.43989190211768903
40
-0.43989190211768903
40
-0.43581240085858247
40
-0.43581240085858247
40
-0.43581240085858247
40
-0.41063639028416971
40
-0.41063639028416971
40
-0.41063639028416971
40
-0.37134548296978104
40
-0.37134548296978104
40
-0.37134548296978104
40
-0.3374470664665416
40
-0.3374470664665416
40
-0.3374470664665416
40
-0.30214823243083272
40
-0.30214823243083272
40
-0.30214823243083272
40
-0.28985573512273771
40
-0.28985573512273771
40
-0.28985573512273771
40
-0.28985573512273771
10
0.20365784459085975
20
0.062150340846148164
30
0
10
0.20407362118609129
20
0.062363265538150255
30
0
10
0.20456847363654465
20
0.062583576803539945
30
0
10
0.20519713899077466
20
0.062834066390662441
30
0
10
0.20907684991635189
20
0.064379924105523748
30
0
10
0.21805805206394721
20
0.066173634835501025
30
0
10
0.2263751337770421
20
0.06636343215556989
30
0
10
0.23935517625635108
20
0.066659639089917316
30
0
10
0.25009716055454762
20
0.063633212031918462
30
0
10
0.26122206116430102
20
0.056976628501999312
30
0
10
0.2708201218914062
20
0.051233629512938826
30
0
10
0.27873827343106489
20
0.043999257744209812
30
0
10
0.28327624488492753
20
0.036961339141157769
30
0
10
0.28800168983877583
20
0.02963266876794959
30
0
10
0.29135231549636614
20
0.019218938448933107
30
0
10
0.2932954451656658
20
0.0070190141344205221
30
0
10
0.29397212236709919
20
0.0027705016582464039
30
0
10
0.29436311382076025
20
-0.0013702460690892609
30
0
10
0.29448252917744466
20
-0.0053349055891260518
30
0
0
SPLINE
5
128
100
AcDbEntity
8
0
100
AcDbSpline
70
4
71
5
72
51
73
45
74
0
42
0.000000001
43
0.0000000001
44
0.0000000001
40
-0.99999662834969294
40
-0.99999662834969294
40
-0.99999662834969294
40
-0.99999662834969294
40
-0.99999662834969294
40
-0.99999662834969294
40
-0.97500000000000053
40
-0.95000000000000051
40
-0.92500000000000049
40
-0.90000000000000047
40
-0.87500000000000044
40
-0.85000000000000042
40
-0.8250000000000004
40
-0.80000000000000038
40
-0.77500000000000036
40
-0.75000000000000033
40
-0.72500000000000031
40
-0.70000000000000029
40
-0.67500000000000027
40
-0.65000000000000024
40
-0.62500000000000022
40
-0.6000000000000002
40
-0.57500000000000018
40
-0.55000000000000016
40
-0.52500000000000013
40
-0.50000000000000011
40
-0.47500000000000014
40
-0.45000000000000012
40
-0.4250000000000001
40
-0.40000000000000008
40
-0.37500000000000006
40
-0.35000000000000003
40
-0.32500000000000001
40
-0.29999999999999999
40
-0.27499999999999997
40
-0.24999999999999997
40
-0.22499999999999998
40
-0.19999999999999998
40
-0.17499999999999999
40
-0.14999999999999999
40
-0.125
40
-0.10000000000000001
40
-0.075000000000000011
40
-0.050000000000000003
40
-0.025000000000000001
40
0
40
0
40
0
40
0
40
0
40
0
41
1
41
1
41
1
41
1
41
1
41
1
41
1
41
1
41
1
41
1
41
1
41
1
41
1
41
1
41
1
41
1
41
1
41
1
41
1
41
1
41
1
41
1
41
1
41
1
41
1
41
1
41
1
41
1
41
1
41
1
41
1
41
1
41
1
41
1
41
1
41
1
41
1
41
1
41
1
41
1
41
1
41
1
41
1
41
1
41
1
10
0.29448246887123652
20
-0.0053349192591967765
30
0
10
0.29437864071215619
20
-0.0048768760864561613
30
0
10
0.2941485472860022
20
-0.0039670868485735646
30
0
10
0.2937361246844436
20
-0.0026214505885705243
30
0
10
0.29305152507099475
20
-0.00086544642258621078
30
0
10
0.29197339076987139
20
0.0012656826679606876
30
0
10
0.29068047644439776
20
0.0033326664731459497
30
0
10
0.28918935474246144
20
0.0053351607500385671
30
0
10
0.28752820406768942
20
0.007272887352875239
30
0
10
0.28574133530211843
20
0.0091458629765905838
30
0
10
0.28388375970780982
20
0.01095299733711288
30
0
10
0.28201292960877627
20
0.012690248756603047
30
0
10
0.28018100547270347
20
0.014348771182622719
30
0
10
0.27842787384716589
20
0.015913386756034199
30
0
10
0.27677141668505467
20
0.017360085116290662
30
0
10
0.27520722434381545
20
0.018656757874513413
30
0
10
0.27372266612775625
20
0.019768763201033768
30
0
10
0.2723081147529105
20
0.020663628503532455
30
0
10
0.27096804179269851
20
0.021315508935809392
30
0
10
0.26973531849204507
20
0.021711277263888076
30
0
10
0.26867170018412656
20
0.021849872097012456
30
0
10
0.26785518567698735
20
0.021734774572353309
30
0
10
0.26737095404837208
20
0.021369127264927002
30
0
10
0.26730115312562724
20
0.020748212197315968
30
0
10
0.26771421176574428
20
0.019858216150939825
30
0
10
0.26865142441071205
20
0.018688072265668616
30
0
10
0.27011398676387605
20
0.017238717617902698
30
0
10
0.2720497613513258
20
0.01553337850612125
30
0
10
0.27433963602706002
20
0.013627675565098177
30
0
10
0.27682309455893006
20
0.011596840480713895
30
0
10
0.27932355329831887
20
0.0095229590121318104
30
0
10
0.28167439045490178
20
0.0074818884046572946
30
0
10
0.28374305779853548
20
0.0055311538920953156
30
0
10
0.28546004968366157
20
0.0036953274579644988
30
0
10
0.28683368119700242
20
0.001958782007938132
30
0
10
0.28792298845824177
20
0.00028020460382283341
30
0
10
0.28881790806156893
20
-0.0013966529648550298
30
0
10
0.28961749278202276
20
-0.0031312284156779125
30
0
10
0.29040731736042164
20
-0.0049738937330378397
30
0
10
0.29124248805382286
20
-0.0069568322895676741
30
0
10
0.29215628122009402
20
-0.009099177386766891
30
0
10
0.29296315208893853
20
-0.010947808749528443
30
0
10
0.29361332958794861
20
-0.012411298068966249
30
0
10
0.29406676749548999
20
-0.013421149685314744
30
0
10
0.2942984832527214
20
-0.013934623646868531
30
0
0
SPLINE
5
129
100
AcDbEntity
8
0
100
AcDbSpline
70
0
71
3
72
23
73
19
74
0
42
0.000000001
43
0.0000000001
44
0.0000000001
40
-0.2806305359452087
40
-0.2806305359452087
40
-0.2806305359452087
40
-0.2806305359452087
40
-0.2613644269169042
40
-0.2613644269169042
40
-0.2613644269169042
40
-0.2104351860368017
40
-0.2104351860368017
40
-0.2104351860368017
40
-0.16811906595852455
40
-0.16811906595852455
40
-0.16811906595852455
40
-0.13609268383437145
40
-0.13609268383437145
40
-0.13609268383437145
40
-0.10127353299107691
40
-0.10127353299107691
40
-0.10127353299107691
40
-0.090002823900448309
40
-0.090002823900448309
40
-0.090002823900448309
40
-0.090002823900448309
10
0.2942984832527214
20
-0.013934623646868535
30
0
10
0.29385923074406811
20
-0.019673911022403366
30
0
10
0.29277887651233803
20
-0.024854692291221205
30
0
10
0.29111174283140928
20
-0.029213921565330161
30
0
10
0.28670473710489686
20
-0.040737381617721835
30
0
10
0.27844752004891643
20
-0.049380528076082841
30
0
10
0.26512023718139488
20
-0.056705864597755638
30
0
10
0.2540468559097816
20
-0.062792344869367162
30
0
10
0.24142434704277199
20
-0.066203608626900709
30
0
10
0.23116165133780031
20
-0.067136638039455784
30
0
10
0.22339446914663219
20
-0.067842788708380231
30
0
10
0.2139712521718618
20
-0.068003316249911822
30
0
10
0.20435578760807574
20
-0.071753662368142332
30
0
10
0.19390183405887595
20
-0.075831046653979314
30
0
10
0.18276368123066719
20
-0.083340526232260168
30
0
10
0.1751117739547193
20
-0.088710803370633778
30
0
10
0.17263490651806609
20
-0.090449123516207305
30
0
10
0.17103995142890785
20
-0.091539403454494711
30
0
10
0.16986561842883263
20
-0.092233602378046592
30
0
0
SPLINE
5
130
100
AcDbEntity
8
0
100
AcDbSpline
70
4
71
5
72
25
73
19
74
0
42
0.000000001
43
0.0000000001
44
0.0000000001
40
-1
40
-1
40
-1
40
-1
40
-1
40
-1
40
-0.95000000000000029
40
-0.90000000000000024
40
-0.8500000000000002
40
-0.80000000000000016
40
-0.75000000000000011
40
-0.70000000000000007
40
-0.65000000000000002
40
-0.59999999999999998
40
-0.54999999999999993
40
-0.49999999999999994
40
-0.44999999999999996
40
-0.39999999999999997
40
-0.34999999999999998
40
-0.33643845709142017
40
-0.33643845709142017
40
-0.33643845709142017
40
-0.33643845709142017
40
-0.33643845709142017
40
-0.33643845709142017
41
1
41
1
41
1
41
1
41
1
41
1
41
1
41
1
41
1
41
1
41
1
41
1
41
1
41
1
41
1
41
1
41
1
41
1
41
1
10
0.16986561842852005
20
-0.092233602378231389
30
0
10
0.16965316586738838
20
-0.092407321391253835
30
0
10
0.16922480104463022
20
-0.092740685376996937
30
0
10
0.16857187473430524
20
-0.093198509322177422
30
0
10
0.16768046325086522
20
-0.093724151892643992
30
0
10
0.16653100270876173
20
-0.094237537799040691
30
0
10
0.16534584430361043
20
-0.094603743264292453
30
0
10
0.16412467362305408
20
-0.094818522722815976
30
0
10
0.16286761931791174
20
-0.094877427170029033
30
0
10
0.16157555722350017
20
-0.094776465027969034
30
0
10
0.16025128308585601
20
-0.094513780315179263
30
0
10
0.15890072010589806
20
-0.094091464503981995
30
0
10
0.15753419780232972
20
-0.093517552166927587
30
0
10
0.15616779560208996
20
-0.092808201921510861
30
0
10
0.15502053534836865
20
-0.092109356941150897
30
0
10
0.15416904097570175
20
-0.091533628467823216
30
0
10
0.15359649421889665
20
-0.091121276965395112
30
0
10
0.15328280555454493
20
-0.090887699103307823
30
0
10
0.15321619383680549
20
-0.090837747431032553
30
0
0
SPLINE
5
131
100
AcDbEntity
8
0
100
AcDbSpline
70
0
71
3
72
11
73
7
74
0
42
0.000000001
43
0.0000000001
44
0.0000000001
40
-0.047870311774293059
40
-0.047870311774293059
40
-0.047870311774293059
40
-0.047870311774293059
40
-0.047142230824343045
40
-0.047142230824343045
40
-0.047142230824343045
40
-0.035053801134731659
40
-0.035053801134731659
40
-0.035053801134731659
40
-0.035053801134731659
10
0.15321626908127556
20
-0.090837612340807519
30
0
10
0.15313105723375051
20
-0.090790149837060713
30
0
10
0.15304802716685956
20
-0.090742089218842165
30
0
10
0.15296729334595813
20
-0.090693434031459311
30
0
10
0.15162685844293317
20
-0.089885605160572035
30
0
10
0.15069043196259982
20
-0.088962694973216933
30
0
10
0.14974119348248155
20
-0.08777563045256738
30
0
0
SPLINE
5
132
100
AcDbEntity
8
0
100
AcDbSpline
70
4
71
5
72
14
73
8
74
0
42
0.000000001
43
0.0000000001
44
0.0000000001
40
-0.16974126281199606
40
-0.16974126281199606
40
-0.16974126281199606
40
-0.16974126281199606
40
-0.16974126281199606
40
-0.16974126281199606
40
-0.15000000000000002
40
-0.10000000000000001
40
-0.066553836046510786
40
-0.066553836046510786
40
-0.066553836046510786
40
-0.066553836046510786
40
-0.066553836046510786
40
-0.066553836046510786
41
1
41
1
41
1
41
1
41
1
41
1
41
1
41
1
10
0.14974119348248147
20
-0.087775630452567477
30
0
10
0.14967604671150989
20
-0.087706699280143768
30
0
10
0.14944982487266975
20
-0.087464433230500224
30
0
10
0.14913573945652867
20
-0.087112708930608365
30
0
10
0.14885260912849049
20
-0.086771770609959997
30
0
10
0.14860064211388357
20
-0.086442279703154615
30
0
10
0.14841722887158529
20
-0.086183435446844231
30
0
10
0.14834698045559647
20
-0.086080914868392922
30
0
0
SPLINE
5
133
100
AcDbEntity
8
0
100
AcDbSpline
70
4
71
5
72
206
73
200
74
0
42
0.000000001
43
0.0000000001
44
0.0000000001
40
0
40
0
40
0
40
0
40
0
40
0
40
0.0051282051282051282
40
0.010256410256410256
40
0.015384615384615385
40
0.020512820512820513
40
0.02564102564102564
40
0.030769230769230767
40
0.035897435897435895
40
0.041025641025641026
40
0.046153846153846156
40
0.051282051282051287
40
0.056410256410256418
40
0.061538461538461549
40
0.06666666666666668
40
0.071794871794871803
40
0.076923076923076927
40
0.082051282051282051
40
0.087179487179487175
40
0.092307692307692299
40
0.097435897435897423
40
0.10256410256410255
40
0.10769230769230767
40
0.11282051282051279
40
0.11794871794871792
40
0.12307692307692304
40
0.12820512820512817
40
0.1333333333333333
40
0.13846153846153844
40
0.14358974358974358
40
0.14871794871794872
40
0.15384615384615385
40
0.15897435897435899
40
0.16410256410256413
40
0.16923076923076927
40
0.17435897435897441
40
0.17948717948717954
40
0.18461538461538468
40
0.18974358974358982
40
0.19487179487179496
40
0.20000000000000009
40
0.20512820512820523
40
0.21025641025641037
40
0.21538461538461551
40
0.22051282051282065
40
0.22564102564102578
40
0.23076923076923092
40
0.23589743589743606
40
0.2410256410256412
40
0.24615384615384633
40
0.25128205128205144
40
0.25641025641025655
40
0.26153846153846166
40
0.26666666666666677
40
0.27179487179487188
40
0.27692307692307699
40
0.2820512820512821
40
0.28717948717948721
40
0.29230769230769232
40
0.29743589743589743
40
0.30256410256410254
40
0.30769230769230765
40
0.31282051282051276
40
0.31794871794871787
40
0.32307692307692298
40
0.32820512820512809
40
0.3333333333333332
40
0.33846153846153831
40
0.34358974358974342
40
0.34871794871794853
40
0.35384615384615364
40
0.35897435897435875
40
0.36410256410256386
40
0.36923076923076897
40
0.37435897435897408
40
0.37948717948717919
40
0.3846153846153843
40
0.38974358974358941
40
0.39487179487179452
40
0.39999999999999963
40
0.40512820512820474
40
0.41025641025640985
40
0.41538461538461496
40
0.42051282051282007
40
0.42564102564102518
40
0.43076923076923029
40
0.4358974358974354
40
0.44102564102564051
40
0.44615384615384562
40
0.45128205128205073
40
0.45641025641025584
40
0.46153846153846095
40
0.46666666666666606
40
0.47179487179487117
40
0.47692307692307628
40
0.48205128205128139
40
0.4871794871794865
40
0.49230769230769161
40
0.49743589743589672
40
0.50256410256410189
40
0.507692307692307
40
0.51282051282051211
40
0.51794871794871722
40
0.52307692307692233
40
0.52820512820512744
40
0.53333333333333255
40
0.53846153846153766
40
0.54358974358974277
40
0.54871794871794788
40
0.55384615384615299
40
0.5589743589743581
40
0.56410256410256321
40
0.56923076923076832
40
0.57435897435897343
40
0.57948717948717854
40
0.58461538461538365
40
0.58974358974358876
40
0.59487179487179387
40
0.59999999999999898
40
0.60512820512820409
40
0.6102564102564092
40
0.61538461538461431
40
0.62051282051281942
40
0.62564102564102453
40
0.63076923076922964
40
0.63589743589743475
40
0.64102564102563986
40
0.64615384615384497
40
0.65128205128205008
40
0.65641025641025519
40
0.6615384615384603
40
0.66666666666666541
40
0.67179487179487052
40
0.67692307692307563
40
0.68205128205128074
40
0.68717948717948585
40
0.69230769230769096
40
0.69743589743589607
40
0.70256410256410118
40
0.70769230769230629
40
0.7128205128205114
40
0.71794871794871651
40
0.72307692307692162
40
0.72820512820512673
40
0.73333333333333184
40
0.73846153846153695
40
0.74358974358974206
40
0.74871794871794717
40
0.75384615384615228
40
0.75897435897435739
40
0.7641025641025625
40
0.76923076923076761
40
0.77435897435897272
40
0.77948717948717783
40
0.78461538461538294
40
0.78974358974358805
40
0.79487179487179316
40
0.79999999999999827
40
0.80512820512820338
40
0.81025641025640849
40
0.8153846153846136
40
0.82051282051281871
40
0.82564102564102382
40
0.83076923076922893
40
0.83589743589743404
40
0.84102564102563915
40
0.84615384615384426
40
0.85128205128204937
40
0.85641025641025448
40
0.86153846153845959
40
0.8666666666666647
40
0.87179487179486981
40
0.87692307692307492
40
0.88205128205128003
40
0.88717948717948514
40
0.89230769230769025
40
0.89743589743589536
40
0.90256410256410047
40
0.90769230769230558
40
0.91282051282051069
40
0.9179487179487158
40
0.92307692307692091
40
0.92820512820512602
40
0.93333333333333113
40
0.93846153846153624
40
0.94358974358974135
40
0.94871794871794646
40
0.95384615384615157
40
0.95897435897435668
40
0.96410256410256179
40
0.9692307692307669
40
0.97435897435897201
40
0.97948717948717712
40
0.98461538461538223
40
0.98974358974358734
40
0.99487179487179245
40
1
40
1
40
1
40
1
40
1
40
1
41
1
41
1
41
1
41
1
41
1
41
1
41
1
41
1
41
1
41
1
41
1
41
1
41
1
41
1
41
1
41
1
41
1
41
1
41
1
41
1
41
1
41
1
41
1
41
1
41
1
41
1
41
1
41
1
41
1
41
1
41
1
41
1
41
1
41
1
41
1
41
1
41
1
41
1
41
1
41
1
41
1
41
1
41
1
41
1
41
1
41
1
41
1
41
1
41
1
41
1
41
1
41
1
41
1
41
1
41
1
41
1
41
1
41
1
41
1
41
1
41
1
41
1
41
1
41
1
41
1
41
1
41
1
41
1
41
1
41
1
41
1
41
1
41
1
41
1
41
1
41
1
41
1
41
1
41
1
41
1
41
1
41
1
41
1
41
1
41
1
41
1
41
1
41
1
41
1
41
1
41
1
41
1
41
1
41
1
41
1
41
1
41
1
41
1
41
1
41
1
41
1
41
1
41
1
41
1
41
1
41
1
41
1
41
1
41
1
41
1
41
1
41
1
41
1
41
1
41
1
41
1
41
1
41
1
41
1
41
1
41
1
41
1
41
1
41
1
41
1
41
1
41
1
41
1
41
1
41
1
41
1
41
1
41
1
41
1
41
1
41
1
41
1
41
1
41
1
41
1
41
1
41
1
41
1
41
1
41
1
41
1
41
1
41
1
41
1
41
1
41
1
41
1
41
1
41
1
41
1
41
1
41
1
41
1
41
1
41
1
41
1
41
1
41
1
41
1
41
1
41
1
41
1
41
1
41
1
41
1
41
1
41
1
41
1
41
1
41
1
41
1
41
1
41
1
41
1
41
1
41
1
41
1
41
1
41
1
41
1
41
1
41
1
41
1
41
1
41
1
41
1
41
1
41
1
41
1
41
1
41
1
41
1
41
1
41
1
41
1
10
0.12750270776520917
20
-0.085992384553352522
30
0
10
0.12778721154616027
20
-0.08599158733062065
30
0
10
0.12835573921134308
20
-0.086051646268229573
30
0
10
0.1292070698858904
20
-0.086326734674807989
30
0
10
0.13033943946430254
20
-0.087063188484479331
30
0
10
0.13176401806450994
20
-0.088575560745779838
30
0
10
0.13324238528933888
20
-0.090599799212563698
30
0
10
0.1348528273975021
20
-0.09299681553413916
30
0
10
0.13669111519423707
20
-0.09560064446884034
30
0
10
0.13885903404119559
20
-0.098241332125999781
30
0
10
0.14145107764701645
20
-0.10077287635912863
30
0
10
0.14453392867635098
20
-0.10307392673943766
30
0
10
0.14812243492888932
20
-0.10504755561376518
30
0
10
0.15216189007981964
20
-0.10662106476128411
30
0
10
0.15649553768216598
20
-0.10774641028670269
30
0
10
0.16088905941432402
20
-0.10839775305656206
30
0
10
0.16509945696597747
20
-0.10856673587324341
30
0
10
0.16893396385505988
20
-0.10825821157389681
30
0
10
0.17230707817847518
20
-0.10748624174362055
30
0
10
0.17531396211456107
20
-0.10626879706752042
30
0
10
0.1781730681510901
20
-0.10463270549391863
30
0
10
0.18113290730437046
20
-0.10262173290838494
30
0
10
0.18439843633836833
20
-0.10030240734481895
30
0
10
0.18803120108221102
20
-0.097773711387714402
30
0
10
0.19196440460036795
20
-0.095158352709394656
30
0
10
0.19606024421768892
20
-0.092587195994738539
30
0
10
0.20015549968927163
20
-0.090185485313025546
30
0
10
0.20410777056736099
20
-0.088059268127563456
30
0
10
0.20785195952913144
20
-0.086279376795576276
30
0
10
0.21140604901907473
20
-0.084876772557885727
30
0
10
0.21483843674691722
20
-0.08384626590222731
30
0
10
0.21824687586106417
20
-0.083147955835892864
30
0
10
0.2217319929364765
20
-0.082709188249509513
30
0
10
0.22537498910683076
20
-0.082427451350256489
30
0
10
0.22923640181151894
20
-0.082185523513313097
30
0
10
0.23335320932261261
20
-0.081866158850718601
30
0
10
0.23773707425525659
20
-0.081365752865992833
30
0
10
0.24237079382260357
20
-0.080611401408981598
30
0
10
0.2472118396603383
20
-0.079562170023299406
30
0
10
0.25219983394990952
20
-0.078201295177524985
30
0
10
0.25726283835567887
20
-0.076531163856248155
30
0
10
0.2623240895558317
20
-0.074567174696682531
30
0
10
0.26730864170994723
20
-0.072332014127838712
30
0
10
0.27214976746504821
20
-0.069849945858966631
30
0
10
0.27678961565071492
20
-0.067145040095578187
30
0
10
0.28118013136500664
20
-0.064239200962823595
30
0
10
0.28528395340802304
20
-0.06115021612428876
30
0
10
0.28907515159924357
20
-0.057889923055773389
30
0
10
0.29254044687779912
20
-0.054462020168483179
30
0
10
0.29567893529119582
20
-0.050860979890247279
30
0
10
0.29849685647880997
20
-0.047074567564986174
30
0
10
0.30100323654482569
20
-0.043085763962668562
30
0
10
0.30320510319798266
20
-0.038874899535381063
30
0
10
0.30510307911879497
20
-0.034421748768430072
30
0
10
0.30668628490818794
20
-0.029707505651714046
30
0
10
0.30793703792578381
20
-0.024719134164644187
30
0
10
0.30883623255306547
20
-0.019453842667247024
30
0
10
0.30936858274840889
20
-0.013923645198521533
30
0
10
0.30952767975864726
20
-0.0081595940128624395
30
0
10
0.30932170939887293
20
-0.0022168571010404347
30
0
10
0.30877718018967026
20
0.0038226303470130819
30
0
10
0.30793038904851588
20
0.0098623394998653986
30
0
10
0.30682017670711476
20
0.015801767968462641
30
0
10
0.3054803817568707
20
0.021547414560533898
30
0
10
0.3039319775978529
20
0.027024157770352532
30
0
10
0.30217638556222359
20
0.032185166258253801
30
0
10
0.30018560641896896
20
0.037025773358468871
30
0
10
0.29790962407099875
20
0.041575842013835171
30
0
10
0.29529028187542411
20
0.045884066841642861
30
0
10
0.29227305798375902
20
0.050004900952768425
30
0
10
0.28881968403813535
20
0.053984417301711433
30
0
10
0.28492048211752502
20
0.057846561445192159
30
0
10
0.28060661607164439
20
0.061579411803267946
30
0
10
0.27593721392689818
20
0.065144423804173443
30
0
10
0.27098657023044714
20
0.068485500467107038
30
0
10
0.26583165164968975
20
0.07153800040222949
30
0
10
0.26053872538964173
20
0.074238054895504002
30
0
10
0.2551521172400007
20
0.076531086093211131
30
0
10
0.24967756981746836
20
0.078382369446282033
30
0
10
0.24409300678175816
20
0.079777247571545362
30
0
10
0.2383713448327959
20
0.080716899211736332
30
0
10
0.2324988213055551
20
0.081215592787318797
30
0
10
0.22649654968566957
20
0.081297204011143168
30
0
10
0.22043754433347751
20
0.080992330456400558
30
0
10
0.21447335647409918
20
0.080334473004972512
30
0
10
0.2088305540065083
20
0.079358916918555344
30
0
10
0.20374756304725786
20
0.078106773225363427
30
0
10
0.19942652399957903
20
0.076627825905546565
30
0
10
0.19597463370683832
20
0.074984034568018734
30
0
10
0.19336037457852839
20
0.07325234977394092
30
0
10
0.19133666878250782
20
0.071528917302433256
30
0
10
0.18956039305618586
20
0.069923380424209314
30
0
10
0.18773378746500743
20
0.068549228028182946
30
0
10
0.1857885428895952
20
0.067518288909676802
30
0
10
0.18388887637846485
20
0.06692480542362382
30
0
10
0.18218899242052961
20
0.066820874419710297
30
0
10
0.18057589710213048
20
0.06718441178824483
30
0
10
0.17868351667713722
20
0.067924930836501654
30
0
10
0.1761619813972963
20
0.068922967115661662
30
0
10
0.17292160303929868
20
0.07006434009505319
30
0
10
0.16911646890997073
20
0.071252535941211601
30
0
10
0.16500457651663583
20
0.072410426300049305
30
0
10
0.16085762276419238
20
0.07348494662550295
30
0
10
0.15683207730182336
20
0.074452205121766327
30
0
10
0.15291755204320442
20
0.075316772767723028
30
0
10
0.14900802073002017
20
0.076099199887645436
30
0
10
0.14494835848052309
20
0.076825753119845616
30
0
10
0.14058673894319504
20
0.077518222494661754
30
0
10
0.13583446698251594
20
0.078181300424248437
30
0
10
0.13067428250098231
20
0.078802679534232062
30
0
10
0.12513731224500549
20
0.079360652401563064
30
0
10
0.11928995736451974
20
0.079829271932307044
30
0
10
0.11321623863069506
20
0.080184792575473535
30
0
10
0.10700309079703026
20
0.08041093199715002
30
0
10
0.10072186191137084
20
0.080506239496186877
30
0
10
0.094424557959179936
20
0.080482275744182249
30
0
10
0.088147064181175738
20
0.080357352750842728
30
0
10
0.081910174531990843
20
0.080151637612267207
30
0
10
0.075721553764116115
20
0.079881755880191654
30
0
10
0.069577236722592972
20
0.079555458751301572
30
0
10
0.063463466642672037
20
0.079166616301367121
30
0
10
0.057358002823772014
20
0.078689113997973806
30
0
10
0.051237404400077013
20
0.078085379471901084
30
0
10
0.04508495322365532
20
0.077316431886170753
30
0
10
0.038898235906069487
20
0.076351278760398877
30
0
10
0.032697127551727087
20
0.075176827493937656
30
0
10
0.026531013264072593
20
0.073807025337502441
30
0
10
0.020487760774998229
20
0.072293659790125184
30
0
10
0.014697704882023949
20
0.070732452017118738
30
0
10
0.0093120453324880299
20
0.069243817775247518
30
0
10
0.0044843566280974578
20
0.067957565397083614
30
0
10
0.00035117511128857548
20
0.066994595210376068
30
0
10
-0.0029876661704982769
20
0.066453247825433576
30
0
10
-0.0054871026508599846
20
0.066385490330076152
30
0
10
-0.0071792590513916369
20
0.066805027736043771
30
0
10
-0.0081878074234319129
20
0.067729596388170082
30
0
10
-0.0087639514229836037
20
0.069232752220570473
30
0
10
-0.0092470327542010927
20
0.071431795785291297
30
0
10
-0.0099542075201550905
20
0.074408362064735681
30
0
10
-0.011065543749403941
20
0.078128752379106534
30
0
10
-0.012614191380087734
20
0.082445234953075611
30
0
10
-0.014545143498685215
20
0.087151409362046031
30
0
10
-0.016754041990395815
20
0.092022230611011627
30
0
10
-0.019130912497082441
20
0.096856749732204234
30
0
10
-0.021609979561307047
20
0.10152863867007286
30
0
10
-0.024184985836210753
20
0.10599857579983712
30
0
10
-0.02688531967888318
20
0.11028406758425351
30
0
10
-0.029762952826821818
20
0.1144409857209488
30
0
10
-0.032874454205272678
20
0.11853975807230901
30
0
10
-0.036266302975472384
20
0.12264517557272479
30
0
10
-0.039955702771175078
20
0.12679121976486984
30
0
10
-0.043934452179803671
20
0.13098148717418762
30
0
10
-0.048179395449936185
20
0.13519686483342233
30
0
10
-0.052660529744546276
20
0.13940072823021499
30
0
10
-0.057350419199356094
20
0.14354529796428681
30
0
10
-0.062232285816954058
20
0.14757720396683063
30
0
10
-0.067310517590954716
20
0.15144409835789102
30
0
10
-0.072613983252884304
20
0.1550984531695053
30
0
10
-0.078184613746429418
20
0.15849572524454345
30
0
10
-0.084069032427923976
20
0.16159367926209173
30
0
10
-0.090309038537815842
20
0.16435128009478009
30
0
10
-0.096932421221019763
20
0.16672769847144375
30
0
10
-0.10394399884278334
20
0.16868143309263273
30
0
10
-0.11131567416416455
20
0.17016898803879393
30
0
10
-0.11897954347063962
20
0.1711449194488141
30
0
10
-0.12683793937011778
20
0.1715694784130313
30
0
10
-0.13477138667475011
20
0.17141530262595642
30
0
10
-0.14264736674785464
20
0.17067451760518182
30
0
10
-0.15032872407525014
20
0.16936557728307078
30
0
10
-0.15768225017603066
20
0.16754042867046784
30
0
10
-0.16458713378031642
20
0.16529105990281834
30
0
10
-0.17094360712527448
20
0.16275747110420405
30
0
10
-0.17668112885582893
20
0.16013170304966043
30
0
10
-0.18176213277318873
20
0.15761458789761959
30
0
10
-0.18618581381545038
20
0.1553767514286791
30
0
10
-0.1899924674387603
20
0.15351619557380008
30
0
10
-0.19326632383105732
20
0.15202142210779321
30
0
10
-0.19614210059103554
20
0.15072234231928819
30
0
10
-0.19880041157942843
20
0.14927663512126893
30
0
10
-0.20140320336812115
20
0.1473355567823964
30
0
10
-0.20404352562567449
20
0.14467352312859882
30
0
10
-0.20667666638114648
20
0.14135672452490836
30
0
10
-0.20909861840617397
20
0.13781982593497352
30
0
10
-0.21109131308738488
20
0.13462354493469006
30
0
10
-0.21254382869668503
20
0.13225893403003078
30
0
10
-0.21357887213597296
20
0.13093938969321264
30
0
10
-0.21468941023557747
20
0.13038070554701875
30
0
10
-0.21648386805521661
20
0.13005214212936678
30
0
10
-0.21934539742014883
20
0.1295132901542855
30
0
10
-0.22328745821833085
20
0.12857314237104311
30
0
10
-0.22810019086253505
20
0.12719161456294331
30
0
10
-0.23343314520707079
20
0.12543824065929227
30
0
10
-0.23889689397702776
20
0.12343144959497253
30
0
10
-0.24417279176072509
20
0.12127757356964457
30
0
10
-0.24905684458406627
20
0.11904295953865675
30
0
10
-0.2534236238055379
20
0.11676910373334934
30
0
10
-0.25645407501117856
20
0.11493469649137177
30
0
10
-0.25845709194663447
20
0.11355339838728484
30
0
10
-0.25967254573635701
20
0.1126300784578409
30
0
10
-0.26025029849929621
20
0.11216780563665041
30
0
0
SPLINE
5
134
100
AcDbEntity
8
0
100
AcDbSpline
70
4
71
5
72
66
73
60
74
0
42
0.000000001
43
0.0000000001
44
0.0000000001
40
0
40
0
40
0
40
0
40
0
40
0
40
0.018181818181818181
40
0.036363636363636362
40
0.054545454545454543
40
0.072727272727272724
40
0.090909090909090912
40
0.1090909090909091
40
0.12727272727272729
40
0.14545454545454548
40
0.16363636363636366
40
0.18181818181818185
40
0.20000000000000004
40
0.21818181818181823
40
0.23636363636363641
40
0.25454545454545457
40
0.27272727272727276
40
0.29090909090909095
40
0.30909090909090914
40
0.32727272727272733
40
0.34545454545454551
40
0.3636363636363637
40
0.38181818181818189
40
0.40000000000000008
40
0.41818181818181827
40
0.43636363636363645
40
0.45454545454545464
40
0.47272727272727283
40
0.49090909090909102
40
0.50909090909090915
40
0.52727272727272734
40
0.54545454545454553
40
0.56363636363636371
40
0.5818181818181819
40
0.60000000000000009
40
0.61818181818181828
40
0.63636363636363646
40
0.65454545454545465
40
0.67272727272727284
40
0.69090909090909103
40
0.70909090909090922
40
0.7272727272727274
40
0.74545454545454559
40
0.76363636363636378
40
0.78181818181818197
40
0.80000000000000016
40
0.81818181818181834
40
0.83636363636363653
40
0.85454545454545472
40
0.87272727272727291
40
0.89090909090909109
40
0.90909090909090928
40
0.92727272727272747
40
0.94545454545454566
40
0.96363636363636385
40
0.98181818181818203
40
1
40
1
40
1
40
1
40
1
40
1
41
1
41
1
41
1
41
1
41
1
41
1
41
1
41
1
41
1
41
1
41
1
41
1
41
1
41
1
41
1
41
1
41
1
41
1
41
1
41
1
41
1
41
1
41
1
41
1
41
1
41
1
41
1
41
1
41
1
41
1
41
1
41
1
41
1
41
1
41
1
41
1
41
1
41
1
41
1
41
1
41
1
41
1
41
1
41
1
41
1
41
1
41
1
41
1
41
1
41
1
41
1
41
1
41
1
41
1
41
1
41
1
41
1
41
1
41
1
41
1
10
-0.26025029849929621
20
0.11216780563665041
30
0
10
-0.26131906830146379
20
0.11147948091886273
30
0
10
-0.26347201449409441
20
0.1100311180473649
30
0
10
-0.26674763966554571
20
0.10764342369446354
30
0
10
-0.27120772190399217
20
0.10402938402565996
30
0
10
-0.27691763039793382
20
0.098784512416672979
30
0
10
-0.28270557197697638
20
0.092786480659753423
30
0
10
-0.28845338866815373
20
0.085982421185987409
30
0
10
-0.29397683628572352
20
0.078294963905816348
30
0
10
-0.29906923961315723
20
0.069658208343254896
30
0
10
-0.30353729070264995
20
0.060048802108661856
30
0
10
-0.30723711538521103
20
0.049516057980098886
30
0
10
-0.31011771226176543
20
0.03822038036273654
30
0
10
-0.31219694458876907
20
0.026400853048775312
30
0
10
-0.31352507825825759
20
0.014329884430490502
30
0
10
-0.31415084035662716
20
0.0022704723050358841
30
0
10
-0.31409079310810539
20
-0.0095631289627093035
30
0
10
-0.31328633649065091
20
-0.021057576450307015
30
0
10
-0.31161977727809764
20
-0.032191283573577846
30
0
10
-0.30896076913592319
20
-0.042993026355352147
30
0
10
-0.30520597358454449
20
-0.053509123009679582
30
0
10
-0.30031560565889653
20
-0.063770629416042474
30
0
10
-0.29436640717390505
20
-0.073751757603509438
30
0
10
-0.28752613485725048
20
-0.083374182230352492
30
0
10
-0.27998473357592274
20
-0.092537647826182581
30
0
10
-0.27189504489120769
20
-0.10114366324580383
30
0
10
-0.26331812467961607
20
-0.10911929551730633
30
0
10
-0.25414539009594034
20
-0.11644773585764538
30
0
10
-0.24411194713331918
20
-0.1231698685157562
30
0
10
-0.23291070496432914
20
-0.12935342364857841
30
0
10
-0.22027802727867038
20
-0.13507123505981325
30
0
10
-0.20609431819830645
20
-0.14037500897988239
30
0
10
-0.19047090731599062
20
-0.14527288111386452
30
0
10
-0.17386341624374352
20
-0.14970027004369954
30
0
10
-0.1569746188405462
20
-0.15354355778582912
30
0
10
-0.1406215985042647
20
-0.15667305057765504
30
0
10
-0.1256180241359906
20
-0.15897146371935711
30
0
10
-0.11264492041620289
20
-0.16036699026950171
30
0
10
-0.10213825439473333
20
-0.16085827309089129
30
0
10
-0.09413924897759221
20
-0.16055821397878847
30
0
10
-0.088262999316580257
20
-0.15967635079945225
30
0
10
-0.08386047689001673
20
-0.15839576446248313
30
0
10
-0.080134457769441253
20
-0.15678082600264898
30
0
10
-0.076275584079696396
20
-0.1546564019024349
30
0
10
-0.071553264819555012
20
-0.15174726739416072
30
0
10
-0.065404631569910332
20
-0.14783552800690927
30
0
10
-0.057528858584928788
20
-0.14291816457842091
30
0
10
-0.047831241871506558
20
-0.13715613464992768
30
0
10
-0.036361859607724582
20
-0.13081432571102161
30
0
10
-0.02325644279705447
20
-0.12420505164147942
30
0
10
-0.0086769561615794508
20
-0.11763059673382005
30
0
10
0.0072485864722641995
20
-0.1113251225449659
30
0
10
0.024422935235700369
20
-0.10546261482043869
30
0
10
0.042775092035986388
20
-0.10016619214191341
30
0
10
0.062256327442859818
20
-0.095516780683287991
30
0
10
0.082836003843877362
20
-0.091561944718830557
30
0
10
0.10016520419646002
20
-0.088972032768223158
30
0
10
0.11364591037619644
20
-0.087355527090409391
30
0
10
0.12284795709441765
20
-0.086422635571446541
30
0
10
0.12750270776520917
20
-0.085992384553352522
30
0
0
ENDSEC
0
SECTION
2
OBJECTS
0
DICTIONARY
5
C
100
AcDbDictionary
3
ACAD_GROUP
350
D
3
ACAD_MLINESTYLE
350
17
0
DICTIONARY
5
D
100
AcDbDictionary
0
DICTIONARY
5
1A
330
C
100
AcDbDictionary
0
DICTIONARY
5
17
100
AcDbDictionary
0
ENDSEC
0
EOF
